<mxfile host="app.diagrams.net" agent="Mozilla/5.0 (X11; Linux x86_64) AppleWebKit/537.36 (KHTML, like Gecko) Chrome/126.0.0.0 Safari/537.36" version="24.7.6">
  <diagram name="Страница — 1" id="FXz6Qzg8k4MSJghazMvo">
    <mxGraphModel dx="1529" dy="2035" grid="1" gridSize="10" guides="1" tooltips="1" connect="1" arrows="1" fold="1" page="1" pageScale="1" pageWidth="827" pageHeight="1169" math="0" shadow="0">
      <root>
        <mxCell id="0" />
        <mxCell id="1" parent="0" />
        <mxCell id="1Hry3ucUljuugz8p2C6j-1" value="" style="rounded=1;whiteSpace=wrap;html=1;" parent="1" vertex="1">
          <mxGeometry x="150" y="35" width="360" height="250" as="geometry" />
        </mxCell>
        <mxCell id="1Hry3ucUljuugz8p2C6j-2" value="&lt;font style=&quot;font-size: 25px;&quot;&gt;API&lt;/font&gt;" style="rounded=1;whiteSpace=wrap;html=1;fillColor=#e1d5e7;strokeColor=#9673a6;" parent="1" vertex="1">
          <mxGeometry x="150" y="35" width="360" height="60" as="geometry" />
        </mxCell>
        <mxCell id="1Hry3ucUljuugz8p2C6j-3" value="&lt;font style=&quot;font-size: 16px;&quot;&gt;API&lt;br&gt;- обработка запросов&lt;/font&gt;" style="rounded=1;whiteSpace=wrap;html=1;align=left;spacingLeft=15;" parent="1" vertex="1">
          <mxGeometry x="160" y="115" width="340" height="60" as="geometry" />
        </mxCell>
        <mxCell id="1Hry3ucUljuugz8p2C6j-4" value="&lt;font style=&quot;font-size: 16px;&quot;&gt;API&lt;br&gt;- обработка запросов&lt;/font&gt;" style="rounded=1;whiteSpace=wrap;html=1;align=left;perimeterSpacing=0;spacingLeft=15;" parent="1" vertex="1">
          <mxGeometry x="160" y="195" width="340" height="60" as="geometry" />
        </mxCell>
        <mxCell id="1Hry3ucUljuugz8p2C6j-5" value="&lt;font style=&quot;font-size: 16px;&quot;&gt;controller&lt;/font&gt;" style="rounded=1;whiteSpace=wrap;html=1;fillColor=#1ba1e2;strokeColor=#006EAF;fontColor=#ffffff;" parent="1" vertex="1">
          <mxGeometry x="380" y="115" width="120" height="30" as="geometry" />
        </mxCell>
        <mxCell id="1Hry3ucUljuugz8p2C6j-7" value="&lt;font style=&quot;font-size: 16px;&quot;&gt;service&lt;/font&gt;" style="rounded=1;whiteSpace=wrap;html=1;fillColor=#008a00;strokeColor=#005700;fontColor=#ffffff;" parent="1" vertex="1">
          <mxGeometry x="380" y="195" width="120" height="30" as="geometry" />
        </mxCell>
        <mxCell id="1Hry3ucUljuugz8p2C6j-8" style="edgeStyle=orthogonalEdgeStyle;rounded=0;orthogonalLoop=1;jettySize=auto;html=1;exitX=0.5;exitY=1;exitDx=0;exitDy=0;" parent="1" source="1Hry3ucUljuugz8p2C6j-1" target="1Hry3ucUljuugz8p2C6j-1" edge="1">
          <mxGeometry relative="1" as="geometry" />
        </mxCell>
        <mxCell id="1Hry3ucUljuugz8p2C6j-9" value="HTTP" style="ellipse;whiteSpace=wrap;html=1;fillColor=#60a917;fontColor=#ffffff;strokeColor=#2D7600;" parent="1" vertex="1">
          <mxGeometry x="200" y="-115" width="80" height="30" as="geometry" />
        </mxCell>
        <mxCell id="1Hry3ucUljuugz8p2C6j-15" value="" style="rounded=0;whiteSpace=wrap;html=1;fillColor=none;strokeColor=#9673a6;dashed=1;glass=0;" parent="1" vertex="1">
          <mxGeometry x="110" width="510" height="420" as="geometry" />
        </mxCell>
        <mxCell id="1Hry3ucUljuugz8p2C6j-16" value="&lt;font style=&quot;font-size: 20px;&quot;&gt;API&lt;/font&gt;" style="text;html=1;align=center;verticalAlign=middle;whiteSpace=wrap;rounded=0;" parent="1" vertex="1">
          <mxGeometry x="110" y="-30" width="60" height="30" as="geometry" />
        </mxCell>
        <mxCell id="1Hry3ucUljuugz8p2C6j-19" value="" style="endArrow=classic;html=1;rounded=0;exitX=0.5;exitY=1;exitDx=0;exitDy=0;strokeWidth=2;dashed=1;" parent="1" source="1Hry3ucUljuugz8p2C6j-9" edge="1">
          <mxGeometry width="50" height="50" relative="1" as="geometry">
            <mxPoint x="239.41000000000008" y="-65" as="sourcePoint" />
            <mxPoint x="239.41000000000008" y="115" as="targetPoint" />
          </mxGeometry>
        </mxCell>
        <mxCell id="1Hry3ucUljuugz8p2C6j-20" value="" style="rounded=1;whiteSpace=wrap;html=1;" parent="1" vertex="1">
          <mxGeometry x="1360" y="455" width="360" height="250" as="geometry" />
        </mxCell>
        <mxCell id="1Hry3ucUljuugz8p2C6j-21" value="&lt;font style=&quot;font-size: 25px;&quot;&gt;API&lt;/font&gt;" style="rounded=1;whiteSpace=wrap;html=1;fillColor=#e1d5e7;strokeColor=#9673a6;" parent="1" vertex="1">
          <mxGeometry x="1360" y="455" width="360" height="60" as="geometry" />
        </mxCell>
        <mxCell id="1Hry3ucUljuugz8p2C6j-22" value="&lt;font style=&quot;font-size: 16px;&quot;&gt;API&lt;br&gt;- обработка запросов&lt;/font&gt;" style="rounded=1;whiteSpace=wrap;html=1;align=left;spacingLeft=15;" parent="1" vertex="1">
          <mxGeometry x="1370" y="535" width="340" height="60" as="geometry" />
        </mxCell>
        <mxCell id="1Hry3ucUljuugz8p2C6j-23" value="&lt;font style=&quot;font-size: 16px;&quot;&gt;API&lt;br&gt;- обработка запросов&lt;/font&gt;" style="rounded=1;whiteSpace=wrap;html=1;align=left;perimeterSpacing=0;spacingLeft=15;" parent="1" vertex="1">
          <mxGeometry x="1370" y="615" width="340" height="60" as="geometry" />
        </mxCell>
        <mxCell id="1Hry3ucUljuugz8p2C6j-24" value="&lt;font style=&quot;font-size: 16px;&quot;&gt;controller&lt;/font&gt;" style="rounded=1;whiteSpace=wrap;html=1;fillColor=#1ba1e2;strokeColor=#006EAF;fontColor=#ffffff;" parent="1" vertex="1">
          <mxGeometry x="1590" y="535" width="120" height="30" as="geometry" />
        </mxCell>
        <mxCell id="1Hry3ucUljuugz8p2C6j-25" value="&lt;font style=&quot;font-size: 16px;&quot;&gt;service&lt;/font&gt;" style="rounded=1;whiteSpace=wrap;html=1;fillColor=#008a00;strokeColor=#005700;fontColor=#ffffff;" parent="1" vertex="1">
          <mxGeometry x="1590" y="615" width="120" height="30" as="geometry" />
        </mxCell>
        <mxCell id="1Hry3ucUljuugz8p2C6j-26" style="edgeStyle=orthogonalEdgeStyle;rounded=0;orthogonalLoop=1;jettySize=auto;html=1;exitX=0.5;exitY=1;exitDx=0;exitDy=0;" parent="1" source="1Hry3ucUljuugz8p2C6j-20" target="1Hry3ucUljuugz8p2C6j-20" edge="1">
          <mxGeometry relative="1" as="geometry" />
        </mxCell>
        <mxCell id="1Hry3ucUljuugz8p2C6j-27" value="" style="rounded=0;whiteSpace=wrap;html=1;fillColor=none;strokeColor=#9673a6;dashed=1;glass=0;" parent="1" vertex="1">
          <mxGeometry x="1320" y="420" width="510" height="420" as="geometry" />
        </mxCell>
        <mxCell id="1Hry3ucUljuugz8p2C6j-28" value="&lt;font style=&quot;font-size: 20px;&quot;&gt;BLOG&lt;/font&gt;" style="text;html=1;align=center;verticalAlign=middle;whiteSpace=wrap;rounded=0;" parent="1" vertex="1">
          <mxGeometry x="1320" y="390" width="60" height="30" as="geometry" />
        </mxCell>
        <mxCell id="1Hry3ucUljuugz8p2C6j-29" value="" style="rounded=0;whiteSpace=wrap;html=1;fillColor=none;strokeColor=#9673a6;dashed=1;glass=0;" parent="1" vertex="1">
          <mxGeometry x="870" y="1490" width="930" height="440" as="geometry" />
        </mxCell>
        <mxCell id="1Hry3ucUljuugz8p2C6j-30" value="&lt;span style=&quot;font-size: 20px;&quot;&gt;EMAIL&lt;/span&gt;" style="text;html=1;align=center;verticalAlign=middle;whiteSpace=wrap;rounded=0;" parent="1" vertex="1">
          <mxGeometry x="870" y="1460" width="60" height="30" as="geometry" />
        </mxCell>
        <mxCell id="1Hry3ucUljuugz8p2C6j-31" value="" style="rounded=0;whiteSpace=wrap;html=1;fillColor=none;strokeColor=#9673a6;dashed=1;glass=0;" parent="1" vertex="1">
          <mxGeometry x="830" y="890" width="1010" height="480" as="geometry" />
        </mxCell>
        <mxCell id="1Hry3ucUljuugz8p2C6j-32" value="&lt;font style=&quot;font-size: 20px;&quot;&gt;FILE&lt;/font&gt;" style="text;html=1;align=center;verticalAlign=middle;whiteSpace=wrap;rounded=0;" parent="1" vertex="1">
          <mxGeometry x="827" y="860" width="60" height="30" as="geometry" />
        </mxCell>
        <mxCell id="1Hry3ucUljuugz8p2C6j-33" value="" style="rounded=0;whiteSpace=wrap;html=1;fillColor=none;strokeColor=#9673a6;dashed=1;glass=0;" parent="1" vertex="1">
          <mxGeometry x="2555" y="420" width="510" height="420" as="geometry" />
        </mxCell>
        <mxCell id="1Hry3ucUljuugz8p2C6j-34" value="&lt;font style=&quot;font-size: 20px;&quot;&gt;COURSES&lt;/font&gt;" style="text;html=1;align=center;verticalAlign=middle;whiteSpace=wrap;rounded=0;" parent="1" vertex="1">
          <mxGeometry x="2190" y="405" width="60" height="30" as="geometry" />
        </mxCell>
        <mxCell id="1Hry3ucUljuugz8p2C6j-35" value="" style="rounded=0;whiteSpace=wrap;html=1;fillColor=none;strokeColor=#9673a6;dashed=1;glass=0;" parent="1" vertex="1">
          <mxGeometry x="2555" y="960" width="510" height="420" as="geometry" />
        </mxCell>
        <mxCell id="1Hry3ucUljuugz8p2C6j-36" value="&lt;font style=&quot;font-size: 20px;&quot;&gt;Payments&lt;/font&gt;" style="text;html=1;align=center;verticalAlign=middle;whiteSpace=wrap;rounded=0;" parent="1" vertex="1">
          <mxGeometry x="2170" y="890" width="60" height="30" as="geometry" />
        </mxCell>
        <mxCell id="1Hry3ucUljuugz8p2C6j-37" value="" style="rounded=0;whiteSpace=wrap;html=1;fillColor=none;strokeColor=#9673a6;dashed=1;glass=0;strokeWidth=3;" parent="1" vertex="1">
          <mxGeometry x="2000" y="1750" width="2100" height="500" as="geometry" />
        </mxCell>
        <mxCell id="1Hry3ucUljuugz8p2C6j-38" value="&lt;font style=&quot;font-size: 24px;&quot;&gt;Accounts&lt;/font&gt;" style="text;html=1;align=center;verticalAlign=middle;whiteSpace=wrap;rounded=0;" parent="1" vertex="1">
          <mxGeometry x="2015" y="1720" width="60" height="30" as="geometry" />
        </mxCell>
        <mxCell id="1Hry3ucUljuugz8p2C6j-39" value="" style="rounded=1;whiteSpace=wrap;html=1;" parent="1" vertex="1">
          <mxGeometry x="2030" y="1800" width="400" height="390" as="geometry" />
        </mxCell>
        <mxCell id="1Hry3ucUljuugz8p2C6j-40" value="&lt;font style=&quot;font-size: 25px;&quot;&gt;Auth&lt;/font&gt;" style="rounded=1;whiteSpace=wrap;html=1;fillColor=#e1d5e7;strokeColor=#9673a6;" parent="1" vertex="1">
          <mxGeometry x="2030" y="1800" width="400" height="60" as="geometry" />
        </mxCell>
        <mxCell id="1Hry3ucUljuugz8p2C6j-41" value="&lt;font style=&quot;font-size: 16px;&quot;&gt;Auth&lt;br&gt;- логин реестрация&lt;/font&gt;" style="rounded=1;whiteSpace=wrap;html=1;align=left;spacingLeft=15;" parent="1" vertex="1">
          <mxGeometry x="2060" y="1880" width="340" height="60" as="geometry" />
        </mxCell>
        <mxCell id="1Hry3ucUljuugz8p2C6j-42" value="&lt;font style=&quot;font-size: 16px;&quot;&gt;Auth&lt;br&gt;- логика авторизации&lt;/font&gt;" style="rounded=1;whiteSpace=wrap;html=1;align=left;perimeterSpacing=0;spacingLeft=15;" parent="1" vertex="1">
          <mxGeometry x="2060" y="1960" width="340" height="60" as="geometry" />
        </mxCell>
        <mxCell id="1Hry3ucUljuugz8p2C6j-43" value="&lt;font style=&quot;font-size: 16px;&quot;&gt;controller&lt;/font&gt;" style="rounded=1;whiteSpace=wrap;html=1;fillColor=#1ba1e2;strokeColor=#006EAF;fontColor=#ffffff;" parent="1" vertex="1">
          <mxGeometry x="2280" y="1880" width="120" height="30" as="geometry" />
        </mxCell>
        <mxCell id="1Hry3ucUljuugz8p2C6j-44" value="&lt;font style=&quot;font-size: 16px;&quot;&gt;service&lt;/font&gt;" style="rounded=1;whiteSpace=wrap;html=1;fillColor=#008a00;strokeColor=#005700;fontColor=#ffffff;" parent="1" vertex="1">
          <mxGeometry x="2280" y="1960" width="120" height="30" as="geometry" />
        </mxCell>
        <mxCell id="1Hry3ucUljuugz8p2C6j-45" value="" style="rounded=1;whiteSpace=wrap;html=1;" parent="1" vertex="1">
          <mxGeometry x="2500" y="1800" width="1180" height="390" as="geometry" />
        </mxCell>
        <mxCell id="1Hry3ucUljuugz8p2C6j-46" value="&lt;font style=&quot;font-size: 25px;&quot;&gt;User&lt;/font&gt;" style="rounded=1;whiteSpace=wrap;html=1;fillColor=#e1d5e7;strokeColor=#9673a6;" parent="1" vertex="1">
          <mxGeometry x="2500" y="1800" width="1180" height="60" as="geometry" />
        </mxCell>
        <mxCell id="6yJq3ko6eaw6hAJMVquD-14" style="edgeStyle=orthogonalEdgeStyle;rounded=0;orthogonalLoop=1;jettySize=auto;html=1;exitX=0.5;exitY=1;exitDx=0;exitDy=0;entryX=0;entryY=0.5;entryDx=0;entryDy=0;" edge="1" parent="1" source="1Hry3ucUljuugz8p2C6j-47" target="6yJq3ko6eaw6hAJMVquD-12">
          <mxGeometry relative="1" as="geometry" />
        </mxCell>
        <mxCell id="1Hry3ucUljuugz8p2C6j-47" value="&lt;font style=&quot;font-size: 16px;&quot;&gt;User&lt;br&gt;- обработка команд&lt;/font&gt;" style="rounded=1;whiteSpace=wrap;html=1;align=left;spacingLeft=15;" parent="1" vertex="1">
          <mxGeometry x="2530" y="1880" width="340" height="60" as="geometry" />
        </mxCell>
        <mxCell id="1Hry3ucUljuugz8p2C6j-48" value="&lt;font style=&quot;font-size: 16px;&quot;&gt;User&lt;br&gt;- хранение пользователя&lt;/font&gt;" style="rounded=1;whiteSpace=wrap;html=1;align=left;perimeterSpacing=0;spacingLeft=15;" parent="1" vertex="1">
          <mxGeometry x="2530" y="2120" width="340" height="60" as="geometry" />
        </mxCell>
        <mxCell id="1Hry3ucUljuugz8p2C6j-49" value="&lt;font style=&quot;font-size: 16px;&quot;&gt;Command&lt;/font&gt;" style="rounded=1;whiteSpace=wrap;html=1;fillColor=#1ba1e2;strokeColor=#006EAF;fontColor=#ffffff;" parent="1" vertex="1">
          <mxGeometry x="2750" y="1880" width="120" height="30" as="geometry" />
        </mxCell>
        <mxCell id="1Hry3ucUljuugz8p2C6j-50" value="&lt;span style=&quot;font-size: 16px;&quot;&gt;Repository&lt;/span&gt;" style="rounded=1;whiteSpace=wrap;html=1;fillColor=#76608a;strokeColor=#432D57;fontColor=#ffffff;" parent="1" vertex="1">
          <mxGeometry x="2750" y="2120" width="120" height="30" as="geometry" />
        </mxCell>
        <mxCell id="1Hry3ucUljuugz8p2C6j-56" value="&lt;font style=&quot;font-size: 16px;&quot;&gt;User&lt;/font&gt;&lt;div&gt;&lt;font style=&quot;font-size: 16px;&quot;&gt;- сущость пользователя&lt;/font&gt;&lt;/div&gt;" style="rounded=1;whiteSpace=wrap;html=1;align=left;perimeterSpacing=0;spacingLeft=15;" parent="1" vertex="1">
          <mxGeometry x="2530" y="2040" width="340" height="60" as="geometry" />
        </mxCell>
        <mxCell id="1Hry3ucUljuugz8p2C6j-57" value="&lt;span style=&quot;font-size: 16px;&quot;&gt;Entiti&lt;/span&gt;" style="rounded=1;whiteSpace=wrap;html=1;fillColor=#a20025;strokeColor=#6F0000;fontColor=#ffffff;" parent="1" vertex="1">
          <mxGeometry x="2750" y="2040" width="120" height="30" as="geometry" />
        </mxCell>
        <mxCell id="1Hry3ucUljuugz8p2C6j-61" value="" style="endArrow=classic;html=1;rounded=0;exitX=1;exitY=0.5;exitDx=0;exitDy=0;entryX=0;entryY=0.5;entryDx=0;entryDy=0;strokeWidth=2;" parent="1" source="1Hry3ucUljuugz8p2C6j-42" target="1Hry3ucUljuugz8p2C6j-56" edge="1">
          <mxGeometry width="50" height="50" relative="1" as="geometry">
            <mxPoint x="2440" y="2120" as="sourcePoint" />
            <mxPoint x="2490" y="2070" as="targetPoint" />
          </mxGeometry>
        </mxCell>
        <mxCell id="1Hry3ucUljuugz8p2C6j-62" value="" style="endArrow=classic;html=1;rounded=0;exitX=1;exitY=0.5;exitDx=0;exitDy=0;entryX=0;entryY=0.5;entryDx=0;entryDy=0;strokeWidth=2;" parent="1" source="1Hry3ucUljuugz8p2C6j-42" target="1Hry3ucUljuugz8p2C6j-48" edge="1">
          <mxGeometry width="50" height="50" relative="1" as="geometry">
            <mxPoint x="2410" y="2000" as="sourcePoint" />
            <mxPoint x="2540" y="2000" as="targetPoint" />
          </mxGeometry>
        </mxCell>
        <mxCell id="1Hry3ucUljuugz8p2C6j-63" value="&lt;font style=&quot;font-size: 16px;&quot;&gt;JWT&lt;br&gt;- authorisation by JWT&lt;/font&gt;" style="rounded=1;whiteSpace=wrap;html=1;align=left;perimeterSpacing=0;spacingLeft=15;" parent="1" vertex="1">
          <mxGeometry x="2060" y="2040" width="340" height="60" as="geometry" />
        </mxCell>
        <mxCell id="1Hry3ucUljuugz8p2C6j-64" value="&lt;span style=&quot;font-size: 16px;&quot;&gt;Strategy&lt;/span&gt;" style="rounded=1;whiteSpace=wrap;html=1;fillColor=#0050ef;strokeColor=#001DBC;fontColor=#ffffff;" parent="1" vertex="1">
          <mxGeometry x="2280" y="2040" width="120" height="30" as="geometry" />
        </mxCell>
        <mxCell id="NOx0zix0NdKzNJuwrrX9-1" value="" style="endArrow=classic;html=1;rounded=0;strokeWidth=2;dashed=1;" parent="1" edge="1">
          <mxGeometry width="50" height="50" relative="1" as="geometry">
            <mxPoint x="2160" y="1620" as="sourcePoint" />
            <mxPoint x="2160" y="1880" as="targetPoint" />
          </mxGeometry>
        </mxCell>
        <mxCell id="NOx0zix0NdKzNJuwrrX9-2" value="&lt;font style=&quot;font-size: 15px;&quot;&gt;login.command&lt;/font&gt;" style="rounded=0;whiteSpace=wrap;html=1;" parent="1" vertex="1">
          <mxGeometry x="2180" y="1610" width="180" height="30" as="geometry" />
        </mxCell>
        <mxCell id="NOx0zix0NdKzNJuwrrX9-3" value="&lt;font style=&quot;font-size: 15px;&quot;&gt;register.command&lt;/font&gt;" style="rounded=0;whiteSpace=wrap;html=1;" parent="1" vertex="1">
          <mxGeometry x="2180" y="1650" width="180" height="30" as="geometry" />
        </mxCell>
        <mxCell id="NOx0zix0NdKzNJuwrrX9-4" value="" style="endArrow=classic;html=1;rounded=0;strokeWidth=2;dashed=1;" parent="1" edge="1">
          <mxGeometry width="50" height="50" relative="1" as="geometry">
            <mxPoint x="2630" y="1620" as="sourcePoint" />
            <mxPoint x="2630" y="1880" as="targetPoint" />
          </mxGeometry>
        </mxCell>
        <mxCell id="NOx0zix0NdKzNJuwrrX9-9" value="&lt;font style=&quot;font-size: 16px;&quot;&gt;Payments&lt;/font&gt;" style="text;html=1;align=center;verticalAlign=middle;whiteSpace=wrap;rounded=0;" parent="1" vertex="1">
          <mxGeometry x="3320" y="1490" width="160" height="30" as="geometry" />
        </mxCell>
        <mxCell id="NOx0zix0NdKzNJuwrrX9-10" value="" style="rounded=1;whiteSpace=wrap;html=1;" parent="1" vertex="1">
          <mxGeometry x="910" y="1500" width="400" height="390" as="geometry" />
        </mxCell>
        <mxCell id="NOx0zix0NdKzNJuwrrX9-11" value="&lt;font style=&quot;font-size: 25px;&quot;&gt;Integration&lt;/font&gt;" style="rounded=1;whiteSpace=wrap;html=1;fillColor=#e1d5e7;strokeColor=#9673a6;" parent="1" vertex="1">
          <mxGeometry x="910" y="1500" width="400" height="60" as="geometry" />
        </mxCell>
        <mxCell id="NOx0zix0NdKzNJuwrrX9-12" value="" style="rounded=1;whiteSpace=wrap;html=1;" parent="1" vertex="1">
          <mxGeometry x="1360" y="1500" width="400" height="390" as="geometry" />
        </mxCell>
        <mxCell id="NOx0zix0NdKzNJuwrrX9-13" value="&lt;font style=&quot;font-size: 25px;&quot;&gt;Email&lt;/font&gt;" style="rounded=1;whiteSpace=wrap;html=1;fillColor=#e1d5e7;strokeColor=#9673a6;" parent="1" vertex="1">
          <mxGeometry x="1360" y="1500" width="400" height="60" as="geometry" />
        </mxCell>
        <mxCell id="NOx0zix0NdKzNJuwrrX9-14" value="&lt;font style=&quot;font-size: 16px;&quot;&gt;Email&lt;br&gt;- отправка и работа со списком рассылок&lt;/font&gt;" style="rounded=1;whiteSpace=wrap;html=1;align=left;spacingLeft=15;" parent="1" vertex="1">
          <mxGeometry x="1390" y="1580" width="340" height="60" as="geometry" />
        </mxCell>
        <mxCell id="NOx0zix0NdKzNJuwrrX9-15" value="&lt;font style=&quot;font-size: 16px;&quot;&gt;controller&lt;/font&gt;" style="rounded=1;whiteSpace=wrap;html=1;fillColor=#1ba1e2;strokeColor=#006EAF;fontColor=#ffffff;" parent="1" vertex="1">
          <mxGeometry x="1610" y="1580" width="120" height="30" as="geometry" />
        </mxCell>
        <mxCell id="NOx0zix0NdKzNJuwrrX9-16" value="&lt;font style=&quot;font-size: 16px;&quot;&gt;List&lt;br&gt;- хранения списков рассылок&lt;/font&gt;" style="rounded=1;whiteSpace=wrap;html=1;align=left;spacingLeft=15;" parent="1" vertex="1">
          <mxGeometry x="1390" y="1660" width="340" height="60" as="geometry" />
        </mxCell>
        <mxCell id="NOx0zix0NdKzNJuwrrX9-18" value="&lt;span style=&quot;font-size: 16px;&quot;&gt;Repository&lt;/span&gt;" style="rounded=1;whiteSpace=wrap;html=1;fillColor=#76608a;strokeColor=#432D57;fontColor=#ffffff;" parent="1" vertex="1">
          <mxGeometry x="1610" y="1660" width="120" height="30" as="geometry" />
        </mxCell>
        <mxCell id="NOx0zix0NdKzNJuwrrX9-19" value="&lt;font style=&quot;font-size: 16px;&quot;&gt;Integration job&lt;br&gt;-&amp;nbsp; логика авторизации&lt;/font&gt;" style="rounded=1;whiteSpace=wrap;html=1;align=left;perimeterSpacing=0;spacingLeft=15;" parent="1" vertex="1">
          <mxGeometry x="941" y="1580" width="340" height="60" as="geometry" />
        </mxCell>
        <mxCell id="NOx0zix0NdKzNJuwrrX9-20" value="&lt;font style=&quot;font-size: 16px;&quot;&gt;service&lt;/font&gt;" style="rounded=1;whiteSpace=wrap;html=1;fillColor=#008a00;strokeColor=#005700;fontColor=#ffffff;" parent="1" vertex="1">
          <mxGeometry x="1161" y="1580" width="120" height="30" as="geometry" />
        </mxCell>
        <mxCell id="NOx0zix0NdKzNJuwrrX9-21" value="" style="endArrow=classic;html=1;rounded=0;exitX=0;exitY=0.5;exitDx=0;exitDy=0;entryX=1;entryY=0.5;entryDx=0;entryDy=0;strokeWidth=2;" parent="1" source="NOx0zix0NdKzNJuwrrX9-14" target="NOx0zix0NdKzNJuwrrX9-19" edge="1">
          <mxGeometry width="50" height="50" relative="1" as="geometry">
            <mxPoint x="1310" y="1630" as="sourcePoint" />
            <mxPoint x="1360" y="1580" as="targetPoint" />
          </mxGeometry>
        </mxCell>
        <mxCell id="NOx0zix0NdKzNJuwrrX9-22" value="" style="rounded=1;whiteSpace=wrap;html=1;" parent="1" vertex="1">
          <mxGeometry x="910" y="920" width="400" height="390" as="geometry" />
        </mxCell>
        <mxCell id="NOx0zix0NdKzNJuwrrX9-23" value="" style="rounded=1;whiteSpace=wrap;html=1;" parent="1" vertex="1">
          <mxGeometry x="1360" y="920" width="400" height="390" as="geometry" />
        </mxCell>
        <mxCell id="NOx0zix0NdKzNJuwrrX9-24" value="&lt;font style=&quot;font-size: 25px;&quot;&gt;Files&lt;/font&gt;" style="rounded=1;whiteSpace=wrap;html=1;fillColor=#e1d5e7;strokeColor=#9673a6;" parent="1" vertex="1">
          <mxGeometry x="1360" y="920" width="400" height="60" as="geometry" />
        </mxCell>
        <mxCell id="NOx0zix0NdKzNJuwrrX9-25" value="&lt;font style=&quot;font-size: 16px;&quot;&gt;Files&lt;br&gt;- сохранение и генерация изображений&lt;/font&gt;" style="rounded=1;whiteSpace=wrap;html=1;align=left;spacingLeft=15;" parent="1" vertex="1">
          <mxGeometry x="1390" y="1000" width="340" height="60" as="geometry" />
        </mxCell>
        <mxCell id="NOx0zix0NdKzNJuwrrX9-26" value="&lt;font style=&quot;font-size: 16px;&quot;&gt;controller&lt;/font&gt;" style="rounded=1;whiteSpace=wrap;html=1;fillColor=#1ba1e2;strokeColor=#006EAF;fontColor=#ffffff;" parent="1" vertex="1">
          <mxGeometry x="1610" y="1000" width="120" height="30" as="geometry" />
        </mxCell>
        <mxCell id="NOx0zix0NdKzNJuwrrX9-27" value="&lt;font style=&quot;font-size: 16px;&quot;&gt;Generate&lt;br&gt;- генерация изображений&lt;/font&gt;" style="rounded=1;whiteSpace=wrap;html=1;align=left;spacingLeft=15;" parent="1" vertex="1">
          <mxGeometry x="1390" y="1080" width="340" height="60" as="geometry" />
        </mxCell>
        <mxCell id="NOx0zix0NdKzNJuwrrX9-29" value="&lt;font style=&quot;font-size: 16px;&quot;&gt;Integration job&lt;br&gt;-&amp;nbsp; логика авторизации&lt;/font&gt;" style="rounded=1;whiteSpace=wrap;html=1;align=left;perimeterSpacing=0;spacingLeft=15;" parent="1" vertex="1">
          <mxGeometry x="941" y="1000" width="340" height="60" as="geometry" />
        </mxCell>
        <mxCell id="NOx0zix0NdKzNJuwrrX9-30" value="&lt;font style=&quot;font-size: 16px;&quot;&gt;service&lt;/font&gt;" style="rounded=1;whiteSpace=wrap;html=1;fillColor=#008a00;strokeColor=#005700;fontColor=#ffffff;" parent="1" vertex="1">
          <mxGeometry x="1161" y="1000" width="120" height="30" as="geometry" />
        </mxCell>
        <mxCell id="NOx0zix0NdKzNJuwrrX9-31" value="" style="endArrow=classic;html=1;rounded=0;exitX=0;exitY=0.5;exitDx=0;exitDy=0;entryX=1;entryY=0.5;entryDx=0;entryDy=0;strokeWidth=2;" parent="1" source="NOx0zix0NdKzNJuwrrX9-25" target="NOx0zix0NdKzNJuwrrX9-29" edge="1">
          <mxGeometry width="50" height="50" relative="1" as="geometry">
            <mxPoint x="1310" y="1050" as="sourcePoint" />
            <mxPoint x="1360" y="1000" as="targetPoint" />
          </mxGeometry>
        </mxCell>
        <mxCell id="NOx0zix0NdKzNJuwrrX9-32" value="&lt;font style=&quot;font-size: 25px;&quot;&gt;Bucket&lt;/font&gt;" style="rounded=1;whiteSpace=wrap;html=1;fillColor=#e1d5e7;strokeColor=#9673a6;" parent="1" vertex="1">
          <mxGeometry x="910" y="920" width="400" height="60" as="geometry" />
        </mxCell>
        <mxCell id="NOx0zix0NdKzNJuwrrX9-33" value="&lt;font style=&quot;font-size: 16px;&quot;&gt;service&lt;/font&gt;" style="rounded=1;whiteSpace=wrap;html=1;fillColor=#008a00;strokeColor=#005700;fontColor=#ffffff;" parent="1" vertex="1">
          <mxGeometry x="1610" y="1080" width="120" height="30" as="geometry" />
        </mxCell>
        <mxCell id="NOx0zix0NdKzNJuwrrX9-34" value="&lt;font style=&quot;font-size: 15px;&quot;&gt;change-profile.command&lt;/font&gt;" style="rounded=0;whiteSpace=wrap;html=1;" parent="1" vertex="1">
          <mxGeometry x="2650" y="1610" width="180" height="30" as="geometry" />
        </mxCell>
        <mxCell id="NOx0zix0NdKzNJuwrrX9-35" value="" style="endArrow=classic;html=1;rounded=0;strokeWidth=2;dashed=1;entryX=0.877;entryY=1.11;entryDx=0;entryDy=0;entryPerimeter=0;" parent="1" target="NOx0zix0NdKzNJuwrrX9-26" edge="1">
          <mxGeometry width="50" height="50" relative="1" as="geometry">
            <mxPoint x="1930" y="1030" as="sourcePoint" />
            <mxPoint x="1875" y="1250" as="targetPoint" />
          </mxGeometry>
        </mxCell>
        <mxCell id="NOx0zix0NdKzNJuwrrX9-36" value="&lt;font style=&quot;font-size: 15px;&quot;&gt;upload-file.command&lt;/font&gt;" style="rounded=0;whiteSpace=wrap;html=1;" parent="1" vertex="1">
          <mxGeometry x="1880" y="930" width="180" height="30" as="geometry" />
        </mxCell>
        <mxCell id="NOx0zix0NdKzNJuwrrX9-37" value="&lt;font style=&quot;font-size: 15px;&quot;&gt;upload-image.command&lt;/font&gt;" style="rounded=0;whiteSpace=wrap;html=1;" parent="1" vertex="1">
          <mxGeometry x="1880" y="980" width="180" height="30" as="geometry" />
        </mxCell>
        <mxCell id="NOx0zix0NdKzNJuwrrX9-38" value="" style="endArrow=classic;html=1;rounded=0;strokeWidth=2;dashed=1;entryX=0.959;entryY=1.031;entryDx=0;entryDy=0;entryPerimeter=0;" parent="1" target="NOx0zix0NdKzNJuwrrX9-14" edge="1">
          <mxGeometry width="50" height="50" relative="1" as="geometry">
            <mxPoint x="1950" y="1642" as="sourcePoint" />
            <mxPoint x="1830" y="1835" as="targetPoint" />
          </mxGeometry>
        </mxCell>
        <mxCell id="NOx0zix0NdKzNJuwrrX9-40" value="&lt;font style=&quot;font-size: 15px;&quot;&gt;user-register.ivent&lt;/font&gt;" style="rounded=0;whiteSpace=wrap;html=1;" parent="1" vertex="1">
          <mxGeometry x="1840" y="1595" width="180" height="30" as="geometry" />
        </mxCell>
        <mxCell id="6yJq3ko6eaw6hAJMVquD-15" style="edgeStyle=orthogonalEdgeStyle;rounded=0;orthogonalLoop=1;jettySize=auto;html=1;exitX=0.5;exitY=1;exitDx=0;exitDy=0;entryX=1;entryY=0.75;entryDx=0;entryDy=0;" edge="1" parent="1" source="6yJq3ko6eaw6hAJMVquD-1" target="6yJq3ko6eaw6hAJMVquD-12">
          <mxGeometry relative="1" as="geometry" />
        </mxCell>
        <mxCell id="6yJq3ko6eaw6hAJMVquD-1" value="&lt;font style=&quot;font-size: 16px;&quot;&gt;User&lt;br&gt;- Обработка запросов&lt;/font&gt;" style="rounded=1;whiteSpace=wrap;html=1;align=left;spacingLeft=15;" vertex="1" parent="1">
          <mxGeometry x="2910" y="1880" width="340" height="60" as="geometry" />
        </mxCell>
        <mxCell id="6yJq3ko6eaw6hAJMVquD-2" value="&lt;font style=&quot;font-size: 16px;&quot;&gt;Query&lt;/font&gt;" style="rounded=1;whiteSpace=wrap;html=1;fillColor=#1ba1e2;strokeColor=#006EAF;fontColor=#ffffff;" vertex="1" parent="1">
          <mxGeometry x="3130" y="1880" width="120" height="30" as="geometry" />
        </mxCell>
        <mxCell id="6yJq3ko6eaw6hAJMVquD-3" value="" style="endArrow=classic;html=1;rounded=0;strokeWidth=2;dashed=1;" edge="1" parent="1">
          <mxGeometry width="50" height="50" relative="1" as="geometry">
            <mxPoint x="2980" y="1620" as="sourcePoint" />
            <mxPoint x="2980" y="1880" as="targetPoint" />
          </mxGeometry>
        </mxCell>
        <mxCell id="6yJq3ko6eaw6hAJMVquD-4" value="&lt;font style=&quot;font-size: 15px;&quot;&gt;user-info.query&lt;/font&gt;" style="rounded=0;whiteSpace=wrap;html=1;" vertex="1" parent="1">
          <mxGeometry x="3000" y="1610" width="180" height="30" as="geometry" />
        </mxCell>
        <mxCell id="6yJq3ko6eaw6hAJMVquD-5" value="&lt;font style=&quot;font-size: 15px;&quot;&gt;user- courses.query&lt;/font&gt;" style="rounded=0;whiteSpace=wrap;html=1;" vertex="1" parent="1">
          <mxGeometry x="3000" y="1650" width="180" height="30" as="geometry" />
        </mxCell>
        <mxCell id="6yJq3ko6eaw6hAJMVquD-6" value="&lt;font style=&quot;font-size: 15px;&quot;&gt;buy-course.command&lt;/font&gt;" style="rounded=0;whiteSpace=wrap;html=1;" vertex="1" parent="1">
          <mxGeometry x="2650" y="1650" width="180" height="30" as="geometry" />
        </mxCell>
        <mxCell id="6yJq3ko6eaw6hAJMVquD-7" value="&lt;font style=&quot;font-size: 16px;&quot;&gt;UserCourses&lt;br&gt;- хранение&amp;nbsp;&lt;/font&gt;" style="rounded=1;whiteSpace=wrap;html=1;align=left;perimeterSpacing=0;spacingLeft=15;" vertex="1" parent="1">
          <mxGeometry x="2910" y="2120" width="340" height="60" as="geometry" />
        </mxCell>
        <mxCell id="6yJq3ko6eaw6hAJMVquD-8" value="&lt;span style=&quot;font-size: 16px;&quot;&gt;Repository&lt;/span&gt;" style="rounded=1;whiteSpace=wrap;html=1;fillColor=#76608a;strokeColor=#432D57;fontColor=#ffffff;" vertex="1" parent="1">
          <mxGeometry x="3130" y="2120" width="120" height="30" as="geometry" />
        </mxCell>
        <mxCell id="6yJq3ko6eaw6hAJMVquD-9" value="&lt;font style=&quot;font-size: 16px;&quot;&gt;UserCourse&lt;/font&gt;&lt;div&gt;&lt;font style=&quot;font-size: 16px;&quot;&gt;- сущость пользователя&lt;/font&gt;&lt;/div&gt;" style="rounded=1;whiteSpace=wrap;html=1;align=left;perimeterSpacing=0;spacingLeft=15;" vertex="1" parent="1">
          <mxGeometry x="2910" y="2040" width="340" height="60" as="geometry" />
        </mxCell>
        <mxCell id="6yJq3ko6eaw6hAJMVquD-10" value="&lt;span style=&quot;font-size: 16px;&quot;&gt;Entiti&lt;/span&gt;" style="rounded=1;whiteSpace=wrap;html=1;fillColor=#a20025;strokeColor=#6F0000;fontColor=#ffffff;" vertex="1" parent="1">
          <mxGeometry x="3130" y="2040" width="120" height="30" as="geometry" />
        </mxCell>
        <mxCell id="6yJq3ko6eaw6hAJMVquD-16" style="edgeStyle=orthogonalEdgeStyle;rounded=0;orthogonalLoop=1;jettySize=auto;html=1;exitX=0.25;exitY=1;exitDx=0;exitDy=0;entryX=0.5;entryY=0;entryDx=0;entryDy=0;" edge="1" parent="1" source="6yJq3ko6eaw6hAJMVquD-12" target="1Hry3ucUljuugz8p2C6j-57">
          <mxGeometry relative="1" as="geometry" />
        </mxCell>
        <mxCell id="6yJq3ko6eaw6hAJMVquD-18" style="edgeStyle=orthogonalEdgeStyle;rounded=0;orthogonalLoop=1;jettySize=auto;html=1;exitX=0.5;exitY=1;exitDx=0;exitDy=0;entryX=1;entryY=0.5;entryDx=0;entryDy=0;" edge="1" parent="1" source="6yJq3ko6eaw6hAJMVquD-12" target="1Hry3ucUljuugz8p2C6j-48">
          <mxGeometry relative="1" as="geometry" />
        </mxCell>
        <mxCell id="6yJq3ko6eaw6hAJMVquD-19" style="edgeStyle=orthogonalEdgeStyle;rounded=0;orthogonalLoop=1;jettySize=auto;html=1;exitX=0.5;exitY=1;exitDx=0;exitDy=0;entryX=0;entryY=0.5;entryDx=0;entryDy=0;" edge="1" parent="1" source="6yJq3ko6eaw6hAJMVquD-12" target="6yJq3ko6eaw6hAJMVquD-7">
          <mxGeometry relative="1" as="geometry" />
        </mxCell>
        <mxCell id="6yJq3ko6eaw6hAJMVquD-12" value="&lt;font style=&quot;font-size: 16px;&quot;&gt;User&lt;br&gt;- логика&amp;nbsp;&lt;/font&gt;" style="rounded=1;whiteSpace=wrap;html=1;align=left;perimeterSpacing=0;spacingLeft=15;" vertex="1" parent="1">
          <mxGeometry x="2725" y="1960" width="340" height="60" as="geometry" />
        </mxCell>
        <mxCell id="6yJq3ko6eaw6hAJMVquD-13" value="&lt;font style=&quot;font-size: 16px;&quot;&gt;service&lt;/font&gt;" style="rounded=1;whiteSpace=wrap;html=1;fillColor=#008a00;strokeColor=#005700;fontColor=#ffffff;" vertex="1" parent="1">
          <mxGeometry x="2945" y="1960" width="120" height="30" as="geometry" />
        </mxCell>
        <mxCell id="6yJq3ko6eaw6hAJMVquD-17" style="edgeStyle=orthogonalEdgeStyle;rounded=0;orthogonalLoop=1;jettySize=auto;html=1;exitX=0.75;exitY=1;exitDx=0;exitDy=0;entryX=0.2;entryY=0.083;entryDx=0;entryDy=0;entryPerimeter=0;" edge="1" parent="1" source="6yJq3ko6eaw6hAJMVquD-12" target="6yJq3ko6eaw6hAJMVquD-9">
          <mxGeometry relative="1" as="geometry" />
        </mxCell>
        <mxCell id="6yJq3ko6eaw6hAJMVquD-20" value="&lt;font style=&quot;font-size: 16px;&quot;&gt;UCView&lt;br&gt;- View users&amp;nbsp;&lt;/font&gt;" style="rounded=1;whiteSpace=wrap;html=1;align=left;perimeterSpacing=0;spacingLeft=15;" vertex="1" parent="1">
          <mxGeometry x="3290" y="1950" width="340" height="60" as="geometry" />
        </mxCell>
        <mxCell id="6yJq3ko6eaw6hAJMVquD-21" value="&lt;span style=&quot;font-size: 16px;&quot;&gt;Repository&lt;/span&gt;" style="rounded=1;whiteSpace=wrap;html=1;fillColor=#76608a;strokeColor=#432D57;fontColor=#ffffff;" vertex="1" parent="1">
          <mxGeometry x="3510" y="1950" width="120" height="30" as="geometry" />
        </mxCell>
      </root>
    </mxGraphModel>
  </diagram>
</mxfile>
